<?xml version="1.0" encoding="UTF-8"?><svg id="_レイヤー_2" xmlns="http://www.w3.org/2000/svg" viewBox="0 0 53.52 7.64"><g id="_レイヤー_3"><g><path d="m14.35.12v4.95c0,.2-.03.37-.1.5-.06.13-.15.24-.26.32-.24.17-.49.26-.75.26-.21,0-.39-.04-.55-.13-.15-.07-.27-.16-.36-.27l-.12-.14-1.33.84.14.18c.5.64,1.25.97,2.23.99.7,0,1.33-.23,1.85-.65.55-.42.84-1.03.85-1.8V.12h-1.6Z"/><path d="m7.28,7.5h-1.81l-.53-1.64h-2.62l-.52,1.64H0L2.69.12h1.97l2.62,7.38Zm-2.72-2.92l-.79-2.48c-.06-.19-.1-.41-.12-.66h-.04c-.02.22-.06.43-.13.64l-.8,2.5h1.89Z"/><path d="m27.18,4.31c0,2.22-1.03,3.32-3.1,3.32s-3.01-1.08-3.01-3.25V.12h1.67v4.28c0,1.19.47,1.79,1.4,1.79s1.37-.58,1.37-1.73V.12h1.66v4.18Z"/><path d="m37.79,7.01c-.72.42-1.62.62-2.69.62-1.19,0-2.12-.33-2.81-.99-.68-.66-1.03-1.56-1.03-2.71s.37-2.1,1.12-2.84c.75-.73,1.74-1.1,2.98-1.1.78,0,1.47.11,2.07.32v1.56c-.57-.33-1.27-.49-2.09-.49-.69,0-1.25.22-1.69.67s-.65,1.05-.65,1.79.19,1.34.58,1.76.92.62,1.58.62c.4,0,.71-.06.95-.17v-1.44h-1.48v-1.33h3.14v3.71Z"/><path d="m48.62,7.5h-1.81l-.53-1.64h-2.62l-.52,1.64h-1.8L44.02.12h1.97l2.62,7.38Zm-2.72-2.92l-.79-2.48c-.06-.19-.1-.41-.12-.66h-.04c-.02.22-.06.43-.13.64l-.8,2.5h1.89Z"/><circle cx="52.57" cy="6.68" r=".96"/></g></g></svg>