<?xml version="1.0" encoding="UTF-8"?><svg id="_レイヤー_2" xmlns="http://www.w3.org/2000/svg" viewBox="0 0 1629.51 343.29"><defs><style>.cls-1{fill:#000222;}.cls-2{fill:none;stroke:#000222;stroke-width:4px;}</style></defs><g id="_レイヤー_3"><g><path class="cls-1" d="m1629.51,141.06c0,11.22-7.23,21.45-21.2,29.43l-8.73-7.98c8.48-5.49,14.22-10.73,14.97-20.46h-16.21v-30.68h31.18v29.68Z"/><g><path class="cls-2" d="m35.92,2.06v54.33h60.62V2.06h33.92v139.99h-33.92v-57.21h-60.62v57.21H2V2.06h33.92Z"/><path class="cls-2" d="m197.92,2.06h40.2l55.36,139.99h-36.29l-9.48-25.67h-59.28l-9.48,25.67h-36.29L197.92,2.06Zm.21,87.93h39.9l-19.9-54.02-20,54.02Z"/><path class="cls-2" d="m305.71,142.06V2.06h69.69c26.39,0,47.83,19.38,47.83,46.8s-21.44,47.42-47.83,47.42h-35.88v45.77h-33.81Zm33.81-74.64h28.56c12.78,0,20.41-9.17,20.41-18.56,0-9.9-7.53-17.94-20.41-17.94h-28.56v36.49Z"/><path class="cls-2" d="m439.54,142.06V2.06h69.69c26.39,0,47.83,19.38,47.83,46.8s-21.44,47.42-47.83,47.42h-35.88v45.77h-33.81Zm33.81-74.64h28.56c12.78,0,20.41-9.17,20.41-18.56,0-9.9-7.53-17.94-20.41-17.94h-28.56v36.49Z"/><path class="cls-2" d="m595.48,2.06l32.37,53.4,32.89-53.4h39.69l-56.08,87.93v52.06h-33.92v-52.06L553.93,2.06h41.54Z"/></g><path class="cls-1" d="m765.68,2.06h34.74l42.27,91.34L884.95,2.06h34.74v139.99h-33.92v-75.67l-31.75,67.42h-22.68l-31.75-67.42v75.67h-33.92V2.06Z"/><path class="cls-1" d="m940.77,71.96c0-40.41,32.58-71.96,73.09-71.96s73.19,31.65,73.19,71.96-31.65,72.16-73.19,72.16-73.09-30.62-73.09-72.16Zm34.84,0c0,22.37,15.57,39.38,38.25,39.38s38.45-15.77,38.45-39.38-16.49-39.07-38.45-39.07-38.25,16.39-38.25,39.07Z"/><path class="cls-1" d="m1107.58,2.06h34.74l42.27,91.34,42.27-91.34h34.74v139.99h-33.92v-75.67l-31.75,67.42h-22.68l-31.75-67.42v75.67h-33.92V2.06Z"/><path class="cls-1" d="m1291.39,2.06h34.74l42.27,91.34,42.27-91.34h34.74v139.99h-33.92v-75.67l-31.75,67.42h-22.68l-31.75-67.42v75.67h-33.92V2.06Z"/><path class="cls-1" d="m1499.55,2.06l32.37,53.4,32.89-53.4h39.69l-56.08,87.93v52.06h-33.92v-52.06l-56.49-87.93h41.54Z"/></g><g><g><path class="cls-2" d="m35.92,201.24v54.33h60.62v-54.33h33.92v139.99h-33.92v-57.21h-60.62v57.21H2v-139.99h33.92Z"/><path class="cls-2" d="m197.92,201.24h40.2l55.36,139.99h-36.29l-9.48-25.67h-59.28l-9.48,25.67h-36.29l55.26-139.99Zm.21,87.93h39.9l-19.9-54.02-20,54.02Z"/><path class="cls-2" d="m305.71,341.23v-139.99h69.69c26.39,0,47.83,19.38,47.83,46.8s-21.44,47.42-47.83,47.42h-35.88v45.77h-33.81Zm33.81-74.64h28.56c12.78,0,20.41-9.17,20.41-18.56,0-9.9-7.53-17.94-20.41-17.94h-28.56v36.49Z"/><path class="cls-2" d="m439.54,341.23v-139.99h69.69c26.39,0,47.83,19.38,47.83,46.8s-21.44,47.42-47.83,47.42h-35.88v45.77h-33.81Zm33.81-74.64h28.56c12.78,0,20.41-9.17,20.41-18.56,0-9.9-7.53-17.94-20.41-17.94h-28.56v36.49Z"/><path class="cls-2" d="m595.48,201.24l32.37,53.4,32.89-53.4h39.69l-56.08,87.93v52.06h-33.92v-52.06l-56.49-87.93h41.54Z"/></g><path class="cls-1" d="m765.68,341.23v-139.99h65.46c26.08,0,44.43,14.12,44.43,37.32,0,14.02-7.01,24.74-19.48,31.85,16.49,6.18,23.4,17.63,23.4,32.58,0,21.24-16.29,38.25-43.71,38.25h-70.1Zm60.2-82.99c9.38,0,14.43-7.01,14.43-14.33s-5.57-14.33-15.46-14.33h-25.26v28.66h26.29Zm1.34,54.74c9.79,0,15.46-7.32,15.46-14.23,0-7.63-5.57-14.54-15.46-14.54h-27.63v28.76h27.63Z"/><path class="cls-1" d="m937.21,201.24h40.2l55.36,139.99h-36.29l-9.48-25.67h-59.28l-9.48,25.67h-36.29l55.26-139.99Zm.21,87.93h39.9l-19.9-54.02-20,54.02Z"/><path class="cls-1" d="m1045,341.23v-139.99h65.46c26.08,0,44.43,14.12,44.43,37.32,0,14.02-7.01,24.74-19.48,31.85,16.49,6.18,23.4,17.63,23.4,32.58,0,21.24-16.29,38.25-43.71,38.25h-70.1Zm60.2-82.99c9.38,0,14.43-7.01,14.43-14.33s-5.57-14.33-15.46-14.33h-25.26v28.66h26.29Zm1.34,54.74c9.79,0,15.46-7.32,15.46-14.23,0-7.63-5.57-14.54-15.46-14.54h-27.63v28.76h27.63Z"/><path class="cls-1" d="m1198.92,201.24l32.37,53.4,32.89-53.4h39.69l-56.08,87.93v52.06h-33.92v-52.06l-56.49-87.93h41.54Z"/><path class="cls-1" d="m1314.95,325.56c0-10,7.83-17.73,17.94-17.73s18.04,7.73,18.04,17.73-7.94,17.73-18.04,17.73-17.94-7.73-17.94-17.73Zm35.77-124.33l-5.88,97.93h-23.5l-6.08-97.93h35.46Z"/></g></g></svg>