<?xml version="1.0" encoding="UTF-8"?><svg id="_レイヤー_2" xmlns="http://www.w3.org/2000/svg" viewBox="0 0 68.5 68.5"><defs><style>.cls-1,.cls-2{fill:none;}.cls-3{fill:#222;}.cls-2{stroke:#222;stroke-width:1.01px;}</style></defs><g id="_レイヤー_1-2"><rect class="cls-1" width="68.5" height="68.5"/><path class="cls-2" d="m57.84,45.97c.34.05.69.08,1.04.08,3.94,0,7.13-3.19,7.13-7.13s-3.19-7.13-7.13-7.13c-.35,0-.7.03-1.04.08-3.02-9.98-12.28-17.24-23.25-17.24s-20.23,7.27-23.25,17.24c-.34-.05-.69-.08-1.04-.08-3.94,0-7.13,3.19-7.13,7.13s3.19,7.13,7.13,7.13c.35,0,.7-.03,1.04-.08,3.02,9.98,12.28,17.24,23.25,17.24s20.23-7.27,23.25-17.24Z"/><g><circle class="cls-3" cx="26.74" cy="38.23" r="1.71"/><circle class="cls-3" cx="42.44" cy="38.23" r="1.71"/><path class="cls-2" d="m42.44,41.91c0,4.33-3.51,7.85-7.85,7.85s-7.85-3.51-7.85-7.85"/></g><path class="cls-2" d="m34.59,14.63c2.8.08,6.11,2.44,6.11,6.11,0,3.37-2.74,6.11-6.11,6.11s-6.11-2.74-6.11-6.11"/><g><path class="cls-2" d="m9.73,40.91c-1.1,0-1.99-.89-1.99-1.99s.89-1.99,1.99-1.99"/><path class="cls-2" d="m59.45,36.93c1.1,0,1.99.89,1.99,1.99s-.89,1.99-1.99,1.99"/></g></g></svg>