<?xml version="1.0" encoding="UTF-8"?><svg id="_レイヤー_2" xmlns="http://www.w3.org/2000/svg" viewBox="0 0 68.5 68.5"><defs><style>.cls-1,.cls-2,.cls-3{fill:none;}.cls-4{fill:#222;}.cls-2,.cls-3{stroke:#222;stroke-width:1.01px;}.cls-3{stroke-linecap:round;stroke-linejoin:round;}</style></defs><g id="_レイヤー_1-2"><rect class="cls-1" width="68.5" height="68.5"/><path class="cls-2" d="m10.74,32.29c-2.67,1.05-4.56,3.64-4.56,6.67s1.89,5.63,4.56,6.67"/><path class="cls-2" d="m57.75,45.64c2.67-1.05,4.56-3.64,4.56-6.67s-1.89-5.63-4.56-6.67"/><path class="cls-2" d="m52.42,22.64c2.57-1.78,4.26-4.75,4.26-8.11,0-5.45-4.41-9.86-9.86-9.86s-9.86,4.41-9.86,9.86c0,.05,0,.1,0,.16"/><path class="cls-2" d="m9.96,36.25c-.1.89-.15,1.8-.15,2.71,0,13.5,10.94,24.44,24.44,24.44s24.44-10.94,24.44-24.44c0-1.14-.08-2.26-.24-3.36"/><path class="cls-2" d="m9.96,36.25c1.35-12.22,11.7-21.72,24.28-21.72s22.56,9.17,24.2,21.07"/><path class="cls-3" d="m9.96,36.25c4.92,2.16,10.52,3.13,16.34,2.54,7.62-.77,14.33-4.07,19.3-8.92,3.51,2.66,7.92,4.64,12.84,5.73"/><g><circle class="cls-4" cx="26.35" cy="44.16" r="1.72"/><circle class="cls-4" cx="42.14" cy="44.16" r="1.72"/><path class="cls-2" d="m42.14,47.86c0,4.36-3.53,7.89-7.89,7.89s-7.89-3.53-7.89-7.89"/></g></g></svg>