<?xml version="1.0" encoding="UTF-8"?><svg id="_レイヤー_2" xmlns="http://www.w3.org/2000/svg" viewBox="0 0 68.5 68.5"><defs><style>.cls-1,.cls-2{fill:none;}.cls-3,.cls-4{fill:#fff;}.cls-4,.cls-2{stroke:#222;stroke-width:1.45px;}</style></defs><g id="_レイヤー_1-2"><g><rect class="cls-1" width="68.5" height="68.5"/><g><path class="cls-3" d="m48.79,59.49c.03.39-.27.71-.66.71H4.64c-.39,0-.69-.32-.66-.71l2.87-42.29c.03-.39.37-.71.76-.71h37.55c.39,0,.73.32.76.71l2.87,42.29Z"/><path class="cls-2" d="m48.79,59.49c.03.39-.27.71-.66.71H4.64c-.39,0-.69-.32-.66-.71l2.87-42.29c.03-.39.37-.71.76-.71h37.55c.39,0,.73.32.76.71l2.87,42.29Z"/></g><g><path class="cls-3" d="m62.32,64.38c.05.39-.23.7-.62.7H23.94c-.39,0-.67-.32-.62-.7l3.15-25.34c.05-.39.41-.7.8-.7h31.12c.39,0,.75.32.8.7l3.15,25.34Z"/><path class="cls-2" d="m62.32,64.38c.05.39-.23.7-.62.7H23.94c-.39,0-.67-.32-.62-.7l3.15-25.34c.05-.39.41-.7.8-.7h31.12c.39,0,.75.32.8.7l3.15,25.34Z"/></g><g><circle class="cls-4" cx="18.49" cy="24.94" r="2.56"/><circle class="cls-4" cx="34.28" cy="24.94" r="2.56"/><path class="cls-2" d="m18.49,22.37v-11.06c0-4.36,3.53-7.89,7.89-7.89s7.89,3.53,7.89,7.89v11.06"/></g><g><circle class="cls-4" cx="52.49" cy="45.38" r="1.81"/><circle class="cls-4" cx="33.14" cy="45.38" r="1.81"/><path class="cls-2" d="m52.49,47.19c0,7.38-4.33,10.92-9.68,10.92s-9.68-3.54-9.68-10.92"/></g></g></g></svg>