<?xml version="1.0" encoding="UTF-8"?><svg id="_レイヤー_2" xmlns="http://www.w3.org/2000/svg" viewBox="0 0 68.5 68.5"><defs><style>.cls-1,.cls-2,.cls-3{fill:none;}.cls-2{stroke-linecap:round;stroke-linejoin:round;}.cls-2,.cls-3{stroke:#222;stroke-width:1.46px;}.cls-4{fill:#222;}</style></defs><g id="_レイヤー_1-2"><g><rect class="cls-1" width="68.5" height="68.5"/><path class="cls-3" d="m10.85,32.51c-2.66,1.04-4.54,3.62-4.54,6.64s1.88,5.6,4.54,6.64"/><path class="cls-3" d="m57.65,45.8c2.66-1.04,4.54-3.62,4.54-6.64s-1.88-5.6-4.54-6.64"/><path class="cls-3" d="m52.35,22.91c2.56-1.77,4.24-4.73,4.24-8.07,0-5.42-4.39-9.82-9.82-9.82s-9.82,4.39-9.82,9.82c0,.05,0,.1,0,.15"/><path class="cls-3" d="m10.08,36.46c-.1.89-.15,1.79-.15,2.7,0,13.44,10.89,24.33,24.33,24.33s24.33-10.89,24.33-24.33c0-1.14-.08-2.25-.24-3.35"/><path class="cls-3" d="m10.08,36.46c1.34-12.16,11.65-21.63,24.17-21.63s22.46,9.13,24.09,20.98"/><path class="cls-2" d="m10.08,36.46c4.9,2.15,10.47,3.12,16.27,2.53,7.59-.77,14.27-4.05,19.21-8.88,3.5,2.65,7.88,4.62,12.79,5.71"/><path class="cls-3" d="m42.11,48.01c0,4.34-3.52,7.86-7.86,7.86s-7.86-3.52-7.86-7.86"/><circle class="cls-4" cx="26.39" cy="44.32" r="1.71"/><circle class="cls-4" cx="42.11" cy="44.32" r="1.71"/></g></g></svg>