<?xml version="1.0" encoding="UTF-8"?><svg id="_レイヤー_2" xmlns="http://www.w3.org/2000/svg" viewBox="0 0 68.5 68.5"><defs><style>.cls-1,.cls-2,.cls-3{fill:none;}.cls-4{fill:#222;}.cls-2,.cls-3{stroke:#222;stroke-width:1px;}.cls-3{stroke-linecap:round;stroke-linejoin:round;}</style></defs><g id="_レイヤー_1-2"><rect class="cls-1" width="68.5" height="68.5"/><circle class="cls-2" cx="33.87" cy="38.87" r="24.08"/><g><path class="cls-2" d="m10.71,32.29c-2.63,1.03-4.49,3.58-4.49,6.58s1.86,5.55,4.49,6.58"/><path class="cls-2" d="m57.03,45.44c2.63-1.03,4.49-3.58,4.49-6.58s-1.86-5.55-4.49-6.58"/></g><g><circle class="cls-4" cx="26.09" cy="40.42" r="1.69"/><circle class="cls-4" cx="41.65" cy="40.42" r="1.69"/><path class="cls-2" d="m41.65,44.06c0,4.3-3.48,7.78-7.78,7.78s-7.78-3.48-7.78-7.78"/></g><polyline class="cls-3" points="51.62 25.85 45.7 31.77 39.79 25.85 33.87 31.77 27.95 25.85 22.03 31.77 16.12 25.85"/></g></svg>