<?xml version="1.0" encoding="UTF-8"?><svg id="_レイヤー_2" xmlns="http://www.w3.org/2000/svg" viewBox="0 0 68.5 68.5"><defs><style>.cls-1,.cls-2,.cls-3{fill:none;}.cls-2{stroke-linecap:round;stroke-linejoin:round;}.cls-2,.cls-3{stroke:#222;stroke-width:1.48px;}</style></defs><g id="_レイヤー_1-2"><g><rect class="cls-1" width="68.5" height="68.5"/><path class="cls-3" d="m42.01,20.5c-.42,1.53-2.06,2.79-3.65,2.79h-8.22c-1.59,0-3.23-1.26-3.65-2.79l-1.54-5.68c-.42-1.53.54-2.79,2.13-2.79h14.34c1.59,0,2.55,1.26,2.13,2.79l-1.54,5.68Z"/><path class="cls-3" d="m58.27,55.16c.61,6.33-4.1,11.51-10.46,11.51h-27.13c-6.36,0-11.06-5.18-10.46-11.51l1.44-15.02c.61-6.33,6.31-11.51,12.67-11.51h19.81c6.36,0,12.06,5.18,12.67,11.51l1.44,15.02Z"/><rect class="cls-3" x="26.76" y="23.29" width="14.98" height="2.67" rx="1.28" ry="1.28"/><rect class="cls-3" x="26.76" y="25.96" width="14.98" height="2.67" rx="1.28" ry="1.28"/><path class="cls-2" d="m34.25,42.35c-2.16-3.7-8.22-2.62-8.22,2.02,0,3.19,3.81,6.45,8.22,10.82,4.4-4.37,8.22-7.63,8.22-10.82,0-4.65-6.08-5.69-8.22-2.02Z"/></g></g></svg>