<?xml version="1.0" encoding="UTF-8"?><svg id="_レイヤー_2" xmlns="http://www.w3.org/2000/svg" viewBox="0 0 68.5 68.5"><defs><style>.cls-1,.cls-2{fill:none;}.cls-2{stroke:#222;stroke-width:1.28px;}</style></defs><g id="_レイヤー_1-2"><g><rect class="cls-1" width="68.5" height="68.5"/><path class="cls-2" d="m33.02,13.34c-.25-.76-.65-.76-.9,0l-8.01,24.66c-.25.76.08,1,.73.53l20.98-15.24c.65-.47.52-.85-.28-.85h-25.93c-.8,0-.92.38-.28.85l20.98,15.24c.65.47.97.23.73-.53l-8.01-24.66Z"/><g><path class="cls-2" d="m18.15,38.94c-.25-.76-.65-.76-.9,0l-8.01,24.66c-.25.76.08,1,.73.53l20.98-15.24c.65-.47.52-.85-.28-.85H4.73c-.8,0-.92.38-.28.85l20.98,15.24c.65.47.97.23.73-.53l-8.01-24.66Z"/><path class="cls-2" d="m47.88,38.94c-.25-.76-.65-.76-.9,0l-8.01,24.66c-.25.76.08,1,.73.53l20.98-15.24c.65-.47.52-.85-.28-.85h-25.93c-.8,0-.92.38-.28.85l20.98,15.24c.65.47.97.23.73-.53l-8.01-24.66Z"/></g></g></g></svg>