<?xml version="1.0" encoding="UTF-8"?><svg id="_レイヤー_2" xmlns="http://www.w3.org/2000/svg" viewBox="0 0 68.5 68.5"><defs><style>.cls-1,.cls-2{fill:none;}.cls-2{stroke:#222;stroke-width:.78px;}</style></defs><g id="_レイヤー_1-2"><rect class="cls-1" width="68.5" height="68.5"/><path class="cls-2" d="m33.68,14.9c-.24-.72-.62-.72-.86,0l-7.64,23.52c-.24.72.08.95.69.5l20.01-14.54c.62-.45.5-.81-.26-.81h-24.73c-.76,0-.88.37-.26.81l20.01,14.54c.62.45.93.22.69-.5l-7.64-23.52Z"/><g><path class="cls-2" d="m19.5,39.31c-.24-.72-.62-.72-.86,0l-7.64,23.52c-.24.72.08.95.69.5l20.01-14.54c.62-.45.5-.81-.26-.81H6.71c-.76,0-.88.37-.26.81l20.01,14.54c.62.45.93.22.69-.5l-7.64-23.52Z"/><path class="cls-2" d="m47.86,39.31c-.24-.72-.62-.72-.86,0l-7.64,23.52c-.24.72.08.95.69.5l20.01-14.54c.62-.45.5-.81-.26-.81h-24.73c-.76,0-.88.37-.26.81l20.01,14.54c.62.45.93.22.69-.5l-7.64-23.52Z"/></g></g></svg>