<?xml version="1.0" encoding="UTF-8"?><svg id="_レイヤー_2" xmlns="http://www.w3.org/2000/svg" viewBox="0 0 68.5 68.5"><defs><style>.cls-1,.cls-2,.cls-3{fill:none;}.cls-2{stroke-linecap:round;stroke-linejoin:round;}.cls-2,.cls-3{stroke:#222;stroke-width:1.45px;}.cls-4{fill:#222;}</style></defs><g id="_レイヤー_1-2"><g><rect class="cls-1" width="68.5" height="68.5"/><circle class="cls-3" cx="33.56" cy="38.94" r="24.09"/><g><path class="cls-3" d="m10.39,32.36c-2.63,1.03-4.5,3.59-4.5,6.58s1.87,5.55,4.5,6.58"/><path class="cls-3" d="m56.74,45.52c2.63-1.03,4.5-3.59,4.5-6.58s-1.87-5.55-4.5-6.58"/></g><g><circle class="cls-4" cx="25.78" cy="40.49" r="1.69"/><circle class="cls-4" cx="41.35" cy="40.49" r="1.69"/><path class="cls-3" d="m41.35,44.14c0,4.3-3.48,7.78-7.78,7.78s-7.78-3.48-7.78-7.78"/></g><polyline class="cls-2" points="51.33 25.92 45.41 31.84 39.49 25.92 33.56 31.84 27.64 25.92 21.72 31.84 15.8 25.92"/></g></g></svg>