<?xml version="1.0" encoding="UTF-8"?><svg id="_レイヤー_2" xmlns="http://www.w3.org/2000/svg" viewBox="0 0 68.5 68.5"><defs><style>.cls-1,.cls-2{fill:none;}.cls-3{fill:#fff;}.cls-2{stroke:#222;stroke-width:1px;}</style></defs><g id="_レイヤー_1-2"><rect class="cls-1" width="68.5" height="68.5"/><path class="cls-2" d="m48.83,58.72c.03.39-.27.71-.66.71H4.6c-.39,0-.69-.32-.66-.71l2.88-42.37c.03-.39.37-.71.76-.71h37.62c.39,0,.73.32.76.71l2.88,42.37Z"/><g><path class="cls-3" d="m62.38,63.62c.05.39-.23.7-.62.7H23.93c-.39,0-.67-.32-.62-.7l3.15-25.38c.05-.39.41-.7.8-.7h31.17c.39,0,.75.32.8.7l3.15,25.38Z"/><path class="cls-2" d="m62.38,63.62c.05.39-.23.7-.62.7H23.93c-.39,0-.67-.32-.62-.7l3.15-25.38c.05-.39.41-.7.8-.7h31.17c.39,0,.75.32.8.7l3.15,25.38Z"/></g><g><circle class="cls-2" cx="18.48" cy="24.11" r="2.57"/><circle class="cls-2" cx="34.29" cy="24.11" r="2.57"/><path class="cls-2" d="m18.48,21.54v-11.08c0-4.37,3.54-7.91,7.91-7.91s7.91,3.54,7.91,7.91v11.08"/></g><g><circle class="cls-2" cx="52.54" cy="44.59" r="1.81"/><circle class="cls-2" cx="33.15" cy="44.59" r="1.81"/><path class="cls-2" d="m52.54,46.4c0,7.39-4.34,10.93-9.69,10.93s-9.69-3.55-9.69-10.93"/></g></g></svg>