<?xml version="1.0" encoding="UTF-8"?><svg id="_レイヤー_2" xmlns="http://www.w3.org/2000/svg" viewBox="0 0 68.5 68.5"><defs><style>.cls-1,.cls-2,.cls-3{fill:none;}.cls-2,.cls-3{stroke:#222;stroke-width:1.01px;}.cls-3{stroke-linecap:round;stroke-linejoin:round;}</style></defs><g id="_レイヤー_1-2"><rect class="cls-1" width="68.5" height="68.5"/><path class="cls-2" d="m41.43,20.06c-.41,1.53-2.05,2.78-3.63,2.78h-8.18c-1.58,0-3.22-1.25-3.63-2.78l-1.53-5.65c-.41-1.53.54-2.78,2.12-2.78h14.26c1.58,0,2.54,1.25,2.12,2.78l-1.53,5.65Z"/><path class="cls-2" d="m57.61,54.56c.61,6.3-4.08,11.45-10.4,11.45h-26.99c-6.33,0-11.01-5.15-10.4-11.45l1.44-14.94c.61-6.3,6.28-11.45,12.61-11.45h19.72c6.33,0,12,5.15,12.61,11.45l1.44,14.94Z"/><rect class="cls-2" x="26.26" y="22.84" width="14.9" height="2.66" rx="1.28" ry="1.28"/><rect class="cls-2" x="26.26" y="25.5" width="14.9" height="2.66" rx="1.28" ry="1.28"/><path class="cls-3" d="m33.71,41.81c-2.14-3.68-8.17-2.61-8.17,2.01,0,3.18,3.8,6.42,8.17,10.77,4.38-4.35,8.17-7.59,8.17-10.77,0-4.63-6.05-5.66-8.17-2.01Z"/></g></svg>