<?xml version="1.0" encoding="UTF-8"?><svg id="_レイヤー_2" xmlns="http://www.w3.org/2000/svg" viewBox="0 0 68.5 68.5"><defs><style>.cls-1,.cls-2{fill:none;}.cls-3{fill:#222;}.cls-2{stroke:#222;stroke-width:1.46px;}</style></defs><g id="_レイヤー_1-2"><g><rect class="cls-1" width="68.5" height="68.5"/><path class="cls-2" d="m58.02,46.24c.34.05.69.08,1.04.08,3.93,0,7.12-3.19,7.12-7.12s-3.19-7.12-7.12-7.12c-.35,0-.7.03-1.04.08-3.01-9.96-12.26-17.21-23.2-17.21s-20.19,7.25-23.2,17.21c-.34-.05-.69-.08-1.04-.08-3.93,0-7.12,3.19-7.12,7.12s3.19,7.12,7.12,7.12c.35,0,.7-.03,1.04-.08,3.01,9.96,12.26,17.21,23.2,17.21s20.19-7.25,23.2-17.21Z"/><path class="cls-2" d="m42.65,42.19c0,4.33-3.51,7.83-7.83,7.83s-7.83-3.51-7.83-7.83"/><path class="cls-2" d="m34.82,14.96c2.8.08,6.1,2.44,6.1,6.1,0,3.37-2.73,6.1-6.1,6.1s-6.1-2.73-6.1-6.1"/><g><path class="cls-2" d="m10,41.19c-1.1,0-1.99-.89-1.99-1.99s.89-1.99,1.99-1.99"/><path class="cls-2" d="m59.63,37.22c1.1,0,1.99.89,1.99,1.99s-.89,1.99-1.99,1.99"/></g><circle class="cls-3" cx="26.98" cy="38.52" r="1.7"/><circle class="cls-3" cx="42.65" cy="38.52" r="1.7"/></g></g></svg>