<?xml version="1.0" encoding="UTF-8"?><svg id="_レイヤー_2" xmlns="http://www.w3.org/2000/svg" viewBox="0 0 162.69 50.34"><defs><style>.cls-1{fill:#fff;}</style></defs><g id="_レイヤー_3"><g><path class="cls-1" d="m12.01,50.34L0,39.55l4.76-5.3c2.35-2.61,5.42-2.9,7.72-.83,1.53,1.38,2.03,3.34,1.38,5.28l7.21,1.57-2.35,2.62-6.57-1.48-2.35,2.61,4.36,3.92-2.15,2.4Zm-4.28-8.18l2.47-2.75c1.18-1.32.99-2.72.08-3.54-1-.9-2.4-.92-3.58.39l-2.47,2.75,3.5,3.15Z"/><path class="cls-1" d="m13.85,25.28l9.09-7.03,1.7,2.2-6.55,5.07,2.28,2.95,5.69-4.4,1.7,2.2-5.69,4.4,2.5,3.24,6.69-5.17,1.7,2.19-9.24,7.14-9.88-12.79Z"/><path class="cls-1" d="m31.55,22.18c-2.14-4.21-.58-9.03,3.63-11.17,2.65-1.35,5.72-1.21,8.27.32l-1.44,2.76c-1.77-1.1-3.65-1.36-5.49-.43-2.62,1.33-3.45,4.24-2.04,7.02,1.42,2.8,4.33,3.79,6.95,2.46,1.77-.9,2.75-2.41,3.1-4.7l2.89.46c-.2,3.04-2.03,5.57-4.64,6.89-4.19,2.13-9.09.59-11.23-3.62Z"/><path class="cls-1" d="m49.03,13.73c-1.25-4.73,1.31-8.99,6.04-10.25,4.75-1.26,9.08,1.19,10.33,5.9,1.25,4.72-1.32,8.92-6.07,10.18-4.73,1.25-9.05-1.12-10.3-5.84Zm9.55,2.95c2.92-.77,4.44-3.4,3.63-6.46-.81-3.04-3.44-4.62-6.36-3.84-2.9.77-4.43,3.45-3.62,6.49.81,3.06,3.47,4.57,6.35,3.81Z"/><path class="cls-1" d="m70.68.46l3.4-.09,5.5,10.62L84.5.09l3.4-.09.44,16.16-3.21.09-.27-9.91-4.12,8.95-2.08.06-4.59-8.71.27,9.92-3.21.09-.44-16.16Z"/><path class="cls-1" d="m96.43.81l3.33.73,2.78,11.63,7.4-9.39,3.33.73-3.48,15.79-3.14-.69,2.14-9.69-6.16,7.69-2.03-.45-2.35-9.57-2.14,9.69-3.14-.69,3.48-15.79Z"/><path class="cls-1" d="m120.92,7.48l10.45,4.79-1.16,2.53-7.53-3.45-1.55,3.39,6.53,3-1.16,2.53-6.53-3-1.71,3.72,7.69,3.53-1.16,2.52-10.61-4.87,6.73-14.69Z"/><path class="cls-1" d="m128.27,28.93l9.53-13.05,2.36,1.72.68,14.23,6.54-8.96,2.6,1.89-9.53,13.05-2.39-1.75-.71-14.11-6.47,8.86-2.6-1.9Z"/><path class="cls-1" d="m156.02,30.35l4.43,5.01c3.18,3.59,2.94,8.54-.52,11.6-3.48,3.08-8.4,2.7-11.58-.89l-4.43-5.01,12.1-10.71Zm-7.9,11.28l2.24,2.53c2.04,2.3,5.14,2.33,7.39.34,2.23-1.97,2.6-5.09.57-7.38l-2.24-2.53-7.96,7.04Z"/></g></g></svg>