<?xml version="1.0" encoding="UTF-8"?>
<svg xmlns="http://www.w3.org/2000/svg">
  <symbol id="logo_ajuga" viewBox="0 0 53.52 7.64">
    <title>AJUGA.</title>
    <path d="m14.35.12v4.95c0,.2-.03.37-.1.5-.06.13-.15.24-.26.32-.24.17-.49.26-.75.26-.21,0-.39-.04-.55-.13-.15-.07-.27-.16-.36-.27l-.12-.14-1.33.84.14.18c.5.64,1.25.97,2.23.99.7,0,1.33-.23,1.85-.65.55-.42.84-1.03.85-1.8V.12h-1.6Z" />
    <path d="m7.28,7.5h-1.81l-.53-1.64h-2.62l-.52,1.64H0L2.69.12h1.97l2.62,7.38Zm-2.72-2.92l-.79-2.48c-.06-.19-.1-.41-.12-.66h-.04c-.02.22-.06.43-.13.64l-.8,2.5h1.89Z" />
    <path d="m27.18,4.31c0,2.22-1.03,3.32-3.1,3.32s-3.01-1.08-3.01-3.25V.12h1.67v4.28c0,1.19.47,1.79,1.4,1.79s1.37-.58,1.37-1.73V.12h1.66v4.18Z" />
    <path d="m37.79,7.01c-.72.42-1.62.62-2.69.62-1.19,0-2.12-.33-2.81-.99-.68-.66-1.03-1.56-1.03-2.71s.37-2.1,1.12-2.84c.75-.73,1.74-1.1,2.98-1.1.78,0,1.47.11,2.07.32v1.56c-.57-.33-1.27-.49-2.09-.49-.69,0-1.25.22-1.69.67s-.65,1.05-.65,1.79.19,1.34.58,1.76.92.62,1.58.62c.4,0,.71-.06.95-.17v-1.44h-1.48v-1.33h3.14v3.71Z" />
    <path d="m48.62,7.5h-1.81l-.53-1.64h-2.62l-.52,1.64h-1.8L44.02.12h1.97l2.62,7.38Zm-2.72-2.92l-.79-2.48c-.06-.19-.1-.41-.12-.66h-.04c-.02.22-.06.43-.13.64l-.8,2.5h1.89Z" />
    <circle cx="52.57" cy="6.68" r=".96" />
  </symbol>
  <symbol id="icon_person" viewBox="0 0 41.8 49.24">
    <title>プロファイル</title>
    <circle class="d" cx="20.9" cy="10.48" r="8.78" />
    <path class="d" d="m1.7,49.24v-13.09c0-5.19,4.2-9.39,9.39-9.39h19.61c5.19,0,9.39,4.2,9.39,9.39v13.09" />
    <line class="d" x1="10.82" y1="37.83" x2="10.82" y2="49.24" />
    <line class="d" x1="30.98" y1="37.83" x2="30.98" y2="49.24" />
  </symbol>
  <symbol id="icon_lock" viewBox="0 0 47.31 49.49">
    <title>ログイン</title>
    <rect x="1.7" y="16.98" width="43.91" height="30.82" rx="2.83" ry="2.83" />
    <circle cx="23.65" cy="29.19" r="4.82" />
    <line x1="23.65" y1="34.78" x2="23.65" y2="41.72" />
    <path d="m33.68,16.28v-4.56c0-5.54-4.49-10.02-10.02-10.02s-10.02,4.49-10.02,10.02v4.56" />
  </symbol>
  <symbol id="icon_cart" viewBox="0 0 52.09 46.06">
    <title>カート</title>
    <polyline class="d" points="0 1.7 8.79 1.7 16.62 31.62 44.17 31.62 49.87 10.25 16.98 10.25" />
    <circle class="d" cx="22.65" cy="40.55" r="3.81" />
    <circle class="d" cx="38.15" cy="40.55" r="3.81" />
  </symbol>
  <symbol id="icon_instagram" viewBox="0 0 24 24">
    <title>インスタグラム</title>
    <path d="m12,2.16c3.2,0,3.58.01,4.85.07,3.25.15,4.77,1.69,4.92,4.92.06,1.27.07,1.65.07,4.85s-.01,3.58-.07,4.85c-.15,3.23-1.66,4.77-4.92,4.92-1.27.06-1.64.07-4.85.07s-3.58-.01-4.85-.07c-3.26-.15-4.77-1.7-4.92-4.92-.06-1.27-.07-1.64-.07-4.85s.01-3.58.07-4.85c.15-3.23,1.66-4.77,4.92-4.92,1.27-.06,1.64-.07,4.85-.07Zm0-2.16c-3.26,0-3.67.01-4.95.07C2.7.27.27,2.69.07,7.05c-.06,1.28-.07,1.69-.07,4.95s.01,3.67.07,4.95c.2,4.36,2.62,6.78,6.98,6.98,1.28.06,1.69.07,4.95.07s3.67-.01,4.95-.07c4.35-.2,6.78-2.62,6.98-6.98.06-1.28.07-1.69.07-4.95s-.01-3.67-.07-4.95c-.2-4.35-2.62-6.78-6.98-6.98C15.67.01,15.26,0,12,0Zm0,5.84c-3.4,0-6.16,2.76-6.16,6.16s2.76,6.16,6.16,6.16,6.16-2.76,6.16-6.16-2.76-6.16-6.16-6.16Zm0,10.16c-2.21,0-4-1.79-4-4s1.79-4,4-4,4,1.79,4,4-1.79,4-4,4Zm6.41-11.85c-.8,0-1.44.64-1.44,1.44s.65,1.44,1.44,1.44,1.44-.64,1.44-1.44-.64-1.44-1.44-1.44Z" />
  </symbol>
  <symbol id="icon_twitter" viewBox="0 0 24 19.5">
    <title>ツイッター</title>
    <path class="cls-1" d="m24,2.31c-.88.39-1.83.66-2.83.78,1.02-.61,1.8-1.57,2.17-2.72-.95.56-2.01.97-3.13,1.2-.9-.96-2.18-1.55-3.59-1.55-3.18,0-5.51,2.97-4.8,6.05C7.73,5.84,4.1,3.88,1.67.9c-1.29,2.21-.67,5.11,1.52,6.57-.81-.03-1.57-.25-2.23-.62-.05,2.28,1.58,4.41,3.95,4.89-.69.19-1.45.23-2.22.08.63,1.96,2.44,3.38,4.6,3.42-2.07,1.62-4.68,2.35-7.29,2.04,2.18,1.4,4.77,2.21,7.55,2.21,9.14,0,14.31-7.72,13.99-14.65.96-.7,1.8-1.56,2.46-2.55Z" />
  </symbol>
  <symbol id="icon_arrowPrev" viewBox="0 0 28 14.4">
    <title>右</title>
    <path d="M26.6,12l-8.2-4.8l8.2-4.8V12 M28,14.4V0L15.5,7.2L28,14.4L28,14.4z" />
    <path d="M11.1,12L2.8,7.2l8.2-4.8V12 M12.5,14.4V0L0,7.2L12.5,14.4L12.5,14.4z" />
  </symbol>
  <symbol id="icon_arrowNext" viewBox="0 0 28.01 14.42">
    <title>左</title>
    <path d="m1.42,2.45l8.24,4.76L1.42,11.97V2.45M0,0v14.42l12.49-7.21L0,0h0Z" />
    <path d="m16.94,2.45l8.24,4.76-8.24,4.76V2.45m-1.42-2.45v14.42l12.49-7.21L15.52,0h0Z" />
  </symbol>
  <symbol id="icon_recommend" viewBox="0 0 162.69 50.34">
    <title>recommend</title>
    <path d="m12.01,50.34L0,39.55l4.76-5.3c2.35-2.61,5.42-2.9,7.72-.83,1.53,1.38,2.03,3.34,1.38,5.28l7.21,1.57-2.35,2.62-6.57-1.48-2.35,2.61,4.36,3.92-2.15,2.4Zm-4.28-8.18l2.47-2.75c1.18-1.32.99-2.72.08-3.54-1-.9-2.4-.92-3.58.39l-2.47,2.75,3.5,3.15Z" />
    <path class="cls-1" d="m13.85,25.28l9.09-7.03,1.7,2.2-6.55,5.07,2.28,2.95,5.69-4.4,1.7,2.2-5.69,4.4,2.5,3.24,6.69-5.17,1.7,2.19-9.24,7.14-9.88-12.79Z" />
    <path d="m31.55,22.18c-2.14-4.21-.58-9.03,3.63-11.17,2.65-1.35,5.72-1.21,8.27.32l-1.44,2.76c-1.77-1.1-3.65-1.36-5.49-.43-2.62,1.33-3.45,4.24-2.04,7.02,1.42,2.8,4.33,3.79,6.95,2.46,1.77-.9,2.75-2.41,3.1-4.7l2.89.46c-.2,3.04-2.03,5.57-4.64,6.89-4.19,2.13-9.09.59-11.23-3.62Z" />
    <path d="m49.03,13.73c-1.25-4.73,1.31-8.99,6.04-10.25,4.75-1.26,9.08,1.19,10.33,5.9,1.25,4.72-1.32,8.92-6.07,10.18-4.73,1.25-9.05-1.12-10.3-5.84Zm9.55,2.95c2.92-.77,4.44-3.4,3.63-6.46-.81-3.04-3.44-4.62-6.36-3.84-2.9.77-4.43,3.45-3.62,6.49.81,3.06,3.47,4.57,6.35,3.81Z" />
    <path d="m70.68.46l3.4-.09,5.5,10.62L84.5.09l3.4-.09.44,16.16-3.21.09-.27-9.91-4.12,8.95-2.08.06-4.59-8.71.27,9.92-3.21.09-.44-16.16Z" />
    <path d="m96.43.81l3.33.73,2.78,11.63,7.4-9.39,3.33.73-3.48,15.79-3.14-.69,2.14-9.69-6.16,7.69-2.03-.45-2.35-9.57-2.14,9.69-3.14-.69,3.48-15.79Z" />
    <path d="m120.92,7.48l10.45,4.79-1.16,2.53-7.53-3.45-1.55,3.39,6.53,3-1.16,2.53-6.53-3-1.71,3.72,7.69,3.53-1.16,2.52-10.61-4.87,6.73-14.69Z" />
    <path class="cls-1" d="m128.27,28.93l9.53-13.05,2.36,1.72.68,14.23,6.54-8.96,2.6,1.89-9.53,13.05-2.39-1.75-.71-14.11-6.47,8.86-2.6-1.9Z" />
    <path d="m156.02,30.35l4.43,5.01c3.18,3.59,2.94,8.54-.52,11.6-3.48,3.08-8.4,2.7-11.58-.89l-4.43-5.01,12.1-10.71Zm-7.9,11.28l2.24,2.53c2.04,2.3,5.14,2.33,7.39.34,2.23-1.97,2.6-5.09.57-7.38l-2.24-2.53-7.96,7.04Z" />
  </symbol>
  <symbol id="icon_plus" viewBox="0 0 23.28 23.28">
    <title>+</title>
    <path d="m11.64,0C5.21,0,0,5.21,0,11.64s5.21,11.64,11.64,11.64,11.64-5.21,11.64-11.64S18.07,0,11.64,0Zm0,21.86c-5.64,0-10.22-4.59-10.22-10.22S6,1.42,11.64,1.42s10.22,4.59,10.22,10.22-4.59,10.22-10.22,10.22Z" />
    <polygon points="12.35 7.1 10.93 7.1 10.93 10.93 7.1 10.93 7.1 12.35 10.93 12.35 10.93 16.18 12.35 16.18 12.35 12.35 16.18 12.35 16.18 10.93 12.35 10.93 12.35 7.1" />
  </symbol>
</svg>
