<?xml version="1.0" encoding="UTF-8"?><svg id="_レイヤー_2" xmlns="http://www.w3.org/2000/svg" viewBox="0 0 1629.86 192.89"><defs><style>.cls-1,.cls-2{fill:none;}.cls-3{fill:#fff;}.cls-2{stroke:#fff;stroke-width:4px;}</style></defs><g id="_レイヤー_2-2"><path class="cls-3" d="m1629.66,154.23c0,11.22-7.23,21.45-21.2,29.43l-8.73-7.98c8.48-5.49,14.22-10.73,14.97-20.46h-16.21v-30.68h31.18v29.68h-.01Z"/><path class="cls-2" d="m36.07,15.23v54.33h60.62V15.23h33.92v139.99h-33.92v-57.21h-60.62v57.21H2.15V15.23h33.92Z"/><path class="cls-2" d="m198.07,15.23h40.2l55.36,139.99h-36.29l-9.48-25.67h-59.28l-9.48,25.67h-36.29L198.07,15.23Zm.21,87.93h39.9l-19.9-54.02-20,54.02Z"/><path class="cls-2" d="m305.86,155.23V15.23h69.69c26.39,0,47.83,19.38,47.83,46.8s-21.44,47.42-47.83,47.42h-35.88v45.77h-33.81,0Zm33.81-74.63h28.56c12.78,0,20.41-9.17,20.41-18.56,0-9.9-7.53-17.94-20.41-17.94h-28.56v36.49h0Z"/><path class="cls-2" d="m439.69,155.23V15.23h69.69c26.39,0,47.83,19.38,47.83,46.8s-21.44,47.42-47.83,47.42h-35.88v45.77h-33.81,0Zm33.81-74.63h28.56c12.78,0,20.41-9.17,20.41-18.56,0-9.9-7.53-17.94-20.41-17.94h-28.56v36.49h0Z"/><path class="cls-2" d="m595.63,15.23l32.37,53.4,32.89-53.4h39.69l-56.08,87.93v52.06h-33.92v-52.06l-56.5-87.93h41.55Z"/><path class="cls-3" d="m765.83,15.23h34.74l42.27,91.34,42.26-91.34h34.74v139.99h-33.92v-75.67l-31.75,67.42h-22.68l-31.75-67.42v75.67h-33.92V15.23h0Z"/><path class="cls-3" d="m940.92,85.13c0-40.41,32.58-71.96,73.09-71.96s73.19,31.65,73.19,71.96-31.65,72.16-73.19,72.16-73.09-30.62-73.09-72.16Zm34.84,0c0,22.37,15.57,39.38,38.25,39.38s38.45-15.77,38.45-39.38-16.49-39.07-38.45-39.07-38.25,16.39-38.25,39.07Z"/><path class="cls-3" d="m1107.73,15.23h34.74l42.27,91.34,42.27-91.34h34.74v139.99h-33.92v-75.67l-31.75,67.42h-22.68l-31.75-67.42v75.67h-33.92V15.23h0Z"/><path class="cls-3" d="m1291.54,15.23h34.74l42.27,91.34,42.27-91.34h34.74v139.99h-33.92v-75.67l-31.75,67.42h-22.68l-31.75-67.42v75.67h-33.92V15.23h0Z"/><path class="cls-3" d="m1499.7,15.23l32.37,53.4,32.89-53.4h39.69l-56.08,87.93v52.06h-33.92v-52.06l-56.49-87.93s41.54,0,41.54,0Z"/><rect class="cls-1" width="1629.86" height="192.89"/></g></svg>