<?xml version="1.0" encoding="UTF-8"?><svg id="_レイヤー_2" xmlns="http://www.w3.org/2000/svg" viewBox="0 0 1629.86 192.89"><defs><style>.cls-1,.cls-2{fill:none;}.cls-3{fill:#fff;}.cls-2{stroke:#fff;stroke-width:4px;}</style></defs><g id="_レイヤー_2-2"><path class="cls-2" d="m173.43,21.52v54.33h60.62V21.52h33.92v139.99h-33.92v-57.21h-60.62v57.21h-33.92V21.52h33.92,0Z"/><path class="cls-2" d="m335.43,21.52h40.2l55.36,139.99h-36.29l-9.48-25.67h-59.28l-9.48,25.67h-36.29l55.26-139.99Zm.21,87.93h39.9l-19.9-54.02-20,54.02Z"/><path class="cls-2" d="m443.22,161.51V21.52h69.69c26.39,0,47.83,19.38,47.83,46.8s-21.44,47.42-47.83,47.42h-35.88v45.77h-33.81Zm33.81-74.64h28.56c12.78,0,20.41-9.17,20.41-18.56,0-9.9-7.53-17.94-20.41-17.94h-28.56v36.49h0Z"/><path class="cls-2" d="m577.05,161.51V21.52h69.69c26.39,0,47.83,19.38,47.83,46.8s-21.44,47.42-47.83,47.42h-35.88v45.77h-33.81Zm33.81-74.64h28.56c12.78,0,20.41-9.17,20.41-18.56,0-9.9-7.53-17.94-20.41-17.94h-28.56v36.49h0Z"/><path class="cls-2" d="m732.99,21.52l32.37,53.4,32.89-53.4h39.69l-56.08,87.93v52.06h-33.92v-52.06l-56.49-87.93h41.54Z"/><path class="cls-3" d="m903.19,161.51V21.52h65.46c26.08,0,44.43,14.12,44.43,37.32,0,14.02-7.01,24.74-19.48,31.85,16.49,6.18,23.4,17.63,23.4,32.58,0,21.24-16.29,38.25-43.71,38.25h-70.1Zm60.2-83c9.38,0,14.43-7.01,14.43-14.33s-5.57-14.33-15.46-14.33h-25.26v28.66h26.29Zm1.34,54.74c9.79,0,15.46-7.32,15.46-14.23,0-7.63-5.57-14.54-15.46-14.54h-27.63v28.76h27.63Z"/><path class="cls-3" d="m1074.72,21.52h40.2l55.36,139.99h-36.29l-9.48-25.67h-59.28l-9.48,25.67h-36.29l55.26-139.99h0Zm.21,87.93h39.9l-19.9-54.02-20,54.02Z"/><path class="cls-3" d="m1182.51,161.51V21.52h65.46c26.08,0,44.43,14.12,44.43,37.32,0,14.02-7.01,24.74-19.48,31.85,16.49,6.18,23.4,17.63,23.4,32.58,0,21.24-16.29,38.25-43.71,38.25h-70.1Zm60.2-83c9.38,0,14.43-7.01,14.43-14.33s-5.57-14.33-15.46-14.33h-25.26v28.66h26.29,0Zm1.34,54.74c9.79,0,15.46-7.32,15.46-14.23,0-7.63-5.57-14.54-15.46-14.54h-27.63v28.76h27.63Z"/><path class="cls-3" d="m1336.43,21.52l32.37,53.4,32.89-53.4h39.69l-56.08,87.93v52.06h-33.92v-52.06l-56.49-87.93h41.54Z"/><path class="cls-3" d="m1452.46,145.83c0-10,7.83-17.73,17.94-17.73s18.04,7.73,18.04,17.73-7.94,17.73-18.04,17.73-17.94-7.73-17.94-17.73Zm35.77-124.33l-5.88,97.93h-23.5l-6.08-97.93h35.46Z"/><rect class="cls-1" width="1629.86" height="192.89"/></g></svg>