<?xml version="1.0" encoding="UTF-8"?><svg id="_レイヤー_2" xmlns="http://www.w3.org/2000/svg" viewBox="0 0 230.98 103.26"><defs><style>.cls-1{fill:#222;}</style></defs><g id="_レイヤー_1-2"><path d="m57.23,47.23v19.76c0,.81-.13,1.48-.41,2.01-.26.53-.6.95-1.04,1.26-.97.69-1.95,1.02-3,1.02-.83.01-1.56-.15-2.21-.52-.59-.28-1.07-.64-1.43-1.08l-.46-.56-5.32,3.36.57.72c1.99,2.54,4.97,3.87,8.89,3.95,2.8-.03,5.29-.9,7.4-2.58,2.19-1.69,3.34-4.11,3.4-7.2v-20.17h-6.38Z"/><path d="m29.04,76.66h-7.22l-2.09-6.55h-10.47l-2.07,6.55H0l10.71-29.43h7.86l10.47,29.43Zm-10.84-11.64l-3.16-9.89c-.23-.74-.4-1.62-.49-2.65h-.17c-.07.86-.24,1.72-.51,2.57l-3.2,9.97h7.53Z"/><path d="m108.4,63.92c0,8.84-4.12,13.26-12.35,13.26s-11.99-4.32-11.99-12.95v-16.99h6.65v17.07c0,4.76,1.86,7.14,5.58,7.14s5.48-2.3,5.48-6.89v-17.32h6.63v16.68Z"/><path d="m150.72,74.69c-2.87,1.66-6.45,2.48-10.71,2.48-4.73,0-8.46-1.31-11.19-3.93-2.73-2.62-4.09-6.23-4.09-10.82s1.49-8.39,4.47-11.31c2.98-2.91,6.95-4.37,11.9-4.37,3.12,0,5.87.43,8.25,1.29v6.22c-2.27-1.31-5.05-1.97-8.33-1.97-2.75,0-4.99.89-6.72,2.68-1.73,1.79-2.6,4.17-2.6,7.15s.78,5.36,2.33,7.02c1.55,1.66,3.65,2.48,6.29,2.48,1.59,0,2.84-.23,3.78-.68v-5.75h-5.89v-5.29h12.52v14.8Z"/><path d="m193.9,76.66h-7.22l-2.09-6.55h-10.47l-2.07,6.55h-7.18l10.71-29.43h7.86l10.47,29.43Zm-10.84-11.64l-3.16-9.89c-.23-.74-.4-1.62-.49-2.65h-.17c-.07.86-.24,1.72-.51,2.57l-3.2,9.97h7.53Z"/><path class="cls-1" d="m50.97.1h5.58v1.2h-2.12v5.58h-1.34V1.3h-2.12V.1Z"/><path class="cls-1" d="m59.66.1v2.74h3.3V.1h1.34v6.78h-1.34v-2.87h-3.3v2.87h-1.35V.1h1.35Z"/><path class="cls-1" d="m65.97,6.88L68.71.1h1.55l2.74,6.78h-1.44l-.5-1.33h-3.14l-.5,1.33h-1.44Zm4.7-2.4l-1.18-2.97-1.19,2.97h2.38Z"/><path class="cls-1" d="m74.67,6.88V.1h1.22l3.75,4.65V.1h1.35v6.78h-1.24l-3.73-4.6v4.6h-1.35Z"/><path class="cls-1" d="m83.48,6.88V.1h1.35v3.07l2.85-3.07h1.73l-2.61,2.75,2.76,4.02h-1.64l-2.09-3.12-1.01,1.07v2.05h-1.35Z"/><path class="cls-1" d="m94.74.1l1.7,2.85,1.72-2.85h1.56l-2.61,4.22v2.56h-1.34v-2.56L93.14.1h1.61Z"/><path class="cls-1" d="m100.59,3.5c0-2.05,1.5-3.5,3.55-3.5s3.55,1.46,3.55,3.5-1.49,3.47-3.55,3.47-3.55-1.43-3.55-3.47Zm3.55,2.22c1.27,0,2.17-.9,2.17-2.23s-.9-2.24-2.17-2.24-2.17.92-2.17,2.24.91,2.23,2.17,2.23Z"/><path class="cls-1" d="m109.67,4.3V.1h1.34v4.17c0,.92.66,1.5,1.56,1.5s1.56-.58,1.56-1.5V.1h1.34v4.2c0,1.63-1.16,2.67-2.9,2.67s-2.9-1.05-2.9-2.67Z"/><path class="cls-1" d="m121.2.1h4.82v1.17h-3.48v1.59h2.73v1.17h-2.73v2.85h-1.35V.1Z"/><path class="cls-1" d="m127.28,3.5c0-2.05,1.5-3.5,3.55-3.5s3.55,1.46,3.55,3.5-1.49,3.47-3.55,3.47-3.55-1.43-3.55-3.47Zm3.55,2.22c1.27,0,2.17-.9,2.17-2.23s-.9-2.24-2.17-2.24-2.17.92-2.17,2.24.91,2.23,2.17,2.23Z"/><path class="cls-1" d="m136.45,6.87V.1h2.99c1.47,0,2.42.88,2.42,2.18,0,.86-.47,1.57-1.26,1.91l1.53,2.69h-1.48l-1.38-2.46h-1.47v2.46h-1.35Zm1.35-3.63h1.55c.74,0,1.13-.45,1.13-.97,0-.56-.38-1.01-1.13-1.01h-1.55v1.98Z"/><path class="cls-1" d="m72.09,14.39h1.44l1.96,5.39,1.95-5.39h1.44l-2.54,6.78h-1.7l-2.55-6.78Z"/><path class="cls-1" d="m81.93,21.17h-1.35v-6.78h1.35v6.78Z"/><path class="cls-1" d="m85.01,18.95c.32.65.93,1.1,1.74,1.1.65,0,1.16-.31,1.16-.75s-.5-.69-1.31-.94c-1.3-.41-2.37-.81-2.37-2.12s1.25-1.95,2.4-1.95c1.23,0,2.08.72,2.5,1.47l-1.04.74c-.29-.49-.78-.99-1.5-.99-.52,0-.99.28-.99.72,0,.54.49.62,1.34.92,1.27.45,2.33.79,2.33,2.13s-1.34,1.98-2.55,1.98c-1.31,0-2.31-.68-2.72-1.6l.99-.72Z"/><path class="cls-1" d="m92.7,21.17h-1.35v-6.78h1.35v6.78Z"/><path class="cls-1" d="m94.46,14.39h5.58v1.2h-2.12v5.58h-1.34v-5.58h-2.12v-1.2Z"/><path class="cls-1" d="m103.15,21.17h-1.35v-6.78h1.35v6.78Z"/><path class="cls-1" d="m105.66,21.17v-6.78h1.22l3.75,4.65v-4.65h1.35v6.78h-1.24l-3.73-4.6v4.6h-1.35Z"/><path class="cls-1" d="m114.03,17.78c0-1.98,1.5-3.49,3.48-3.49,1.17,0,2.25.56,2.97,1.59l-1.06.76c-.53-.8-1.22-1.1-1.91-1.1-1.23,0-2.1.93-2.1,2.24s.9,2.24,2.13,2.24c1.13,0,1.76-.66,1.92-1.38h-2.05v-1.16h3.41c.02.17.03.37.03.54,0,1.74-1.23,3.25-3.3,3.25s-3.51-1.51-3.51-3.49Z"/><path class="cls-1" d="m44.63,99.85c0-2.01,1.47-3.44,3.48-3.44s3.49,1.43,3.49,3.44-1.46,3.41-3.49,3.41-3.48-1.4-3.48-3.41Zm3.49,2.18c1.24,0,2.13-.88,2.13-2.18s-.88-2.2-2.13-2.2-2.13.91-2.13,2.2.9,2.18,2.13,2.18Z"/><path class="cls-1" d="m53.62,96.51h4.74v1.15h-3.41v1.56h2.68v1.15h-2.68v2.8h-1.32v-6.65Z"/><path class="cls-1" d="m60.23,96.51h4.74v1.15h-3.41v1.56h2.68v1.15h-2.68v2.8h-1.32v-6.65Z"/><path class="cls-1" d="m68.16,103.17h-1.32v-6.65h1.32v6.65Z"/><path class="cls-1" d="m70.19,99.84c0-1.94,1.47-3.42,3.41-3.42,1.22,0,2.33.62,2.98,1.66l-1.04.74c-.45-.73-1.09-1.18-1.94-1.18-1.21,0-2.06.91-2.06,2.2s.88,2.2,2.09,2.2c.82,0,1.46-.37,2.01-1.15l.98.71c-.64,1.08-1.78,1.67-2.99,1.67-1.94,0-3.45-1.48-3.45-3.42Z"/><path class="cls-1" d="m79.8,103.17h-1.32v-6.65h1.32v6.65Z"/><path class="cls-1" d="m81.45,103.17l2.68-6.65h1.52l2.69,6.65h-1.41l-.49-1.3h-3.09l-.49,1.3h-1.41Zm4.61-2.36l-1.16-2.91-1.17,2.91h2.33Z"/><path class="cls-1" d="m94.89,103.17h-4.9v-6.65h1.32v5.51h3.58v1.14Z"/><path class="cls-1" d="m100,96.51l1.47,5.33,1.49-5.23h1.19l1.49,5.23,1.47-5.33h1.33l-1.82,6.65h-1.85l-1.22-4.29-1.21,4.29h-1.85l-1.82-6.65h1.33Z"/><path class="cls-1" d="m110.2,96.51h4.73v1.15h-3.41v1.53h2.96v1.15h-2.96v1.68h3.48v1.14h-4.8v-6.65Z"/><path class="cls-1" d="m117.03,96.51h3.06c1.2,0,2.06.74,2.06,1.82,0,.45-.25,1.13-.89,1.38.74.28,1.12.91,1.12,1.61,0,1.09-.84,1.85-2.07,1.85h-3.28v-6.65Zm1.32,1.14v1.63h1.56c.54,0,.87-.34.87-.8,0-.52-.39-.83-.92-.83h-1.51Zm0,2.67v1.71h1.74c.53,0,.88-.34.88-.82,0-.55-.34-.9-.88-.9h-1.74Z"/><path class="cls-1" d="m128.22,100.99c.31.64.91,1.08,1.71,1.08.64,0,1.14-.31,1.14-.74s-.5-.68-1.29-.93c-1.28-.4-2.32-.79-2.32-2.08s1.23-1.91,2.36-1.91c1.2,0,2.04.71,2.46,1.45l-1.02.72c-.29-.48-.77-.97-1.47-.97-.51,0-.97.27-.97.71,0,.53.49.61,1.32.91,1.25.44,2.29.78,2.29,2.09s-1.32,1.94-2.5,1.94c-1.28,0-2.27-.67-2.67-1.57l.97-.71Z"/><path class="cls-1" d="m135.77,103.17h-1.32v-6.65h1.32v6.65Z"/><path class="cls-1" d="m137.51,96.51h5.48v1.18h-2.08v5.48h-1.32v-5.48h-2.08v-1.18Z"/><path class="cls-1" d="m144.72,96.51h4.73v1.15h-3.41v1.53h2.96v1.15h-2.96v1.68h3.48v1.14h-4.8v-6.65Z"/><circle id="point1" class="cls-1" cx="208.81" cy="73.87" r="3.1"/><circle id="point2" class="cls-1" cx="218.34" cy="73.87" r="3.1"/><circle id="point3" class="cls-1" cx="227.87" cy="73.87" r="3.1"/></g></svg>