<?xml version="1.0" encoding="UTF-8"?><svg id="_レイヤー_2" xmlns="http://www.w3.org/2000/svg" viewBox="0 0 1207.61 302.06"><defs><style>.cls-1{fill:#fff;}.cls-2{fill:none;stroke:#fff;stroke-width:4px;}</style></defs><g id="_レイヤー_3"><g id="line1"><path class="cls-2" d="m308.49,3.88h106.03v26.53h-37.59v100.78h-30.75V30.41h-37.69V3.88Z"/><path class="cls-2" d="m421.27,67.44c0-36.75,29.62-65.44,66.47-65.44s66.56,28.78,66.56,65.44-28.78,65.62-66.56,65.62-66.47-27.84-66.47-65.62Zm31.69,0c0,20.34,14.16,35.81,34.78,35.81s34.97-14.34,34.97-35.81-15-35.53-34.97-35.53-34.78,14.91-34.78,35.53Z"/><path class="cls-2" d="m597.45,131.19V3.88h59.53c23.72,0,40.41,12.84,40.41,33.94,0,12.75-6.38,22.5-17.72,28.97,15,5.62,21.28,16.03,21.28,29.62,0,19.31-14.81,34.78-39.75,34.78h-63.75Zm54.75-75.47c8.53,0,13.12-6.38,13.12-13.03s-5.06-13.03-14.06-13.03h-22.97v26.06h23.91Zm1.22,49.78c8.91,0,14.06-6.66,14.06-12.94,0-6.94-5.06-13.22-14.06-13.22h-25.12v26.16h25.12Z"/><path class="cls-2" d="m723.35,3.88h90.28v25.97h-59.44v23.62h52.03v25.88h-52.03v25.97h60.37v25.87h-91.22V3.88Z"/></g><g id="line2"><path class="cls-1" d="m1142.71,284.66c4.96,0,8.85,3.79,8.85,8.7s-3.9,8.7-8.85,8.7-8.8-3.79-8.8-8.7,3.84-8.7,8.8-8.7Z"/><path class="cls-1" d="m1170.73,284.66c4.96,0,8.85,3.79,8.85,8.7s-3.9,8.7-8.85,8.7-8.8-3.79-8.8-8.7,3.84-8.7,8.8-8.7Z"/><path class="cls-1" d="m1198.75,284.66c4.96,0,8.85,3.79,8.85,8.7s-3.9,8.7-8.85,8.7-8.8-3.79-8.8-8.7,3.84-8.7,8.8-8.7Z"/><path class="cls-1" d="m0,236.43c0-37.5,29.34-65.44,67.12-65.44,22.59,0,45.19,12.38,56.81,31.78l-23.72,17.53c-7.78-11.81-17.44-20.44-33.09-20.44-21.47,0-35.53,15.37-35.53,36.56s14.06,36.75,35.53,36.75c14.16,0,24.84-6.94,33.66-20.25l23.62,17.25c-12.09,20.06-33.19,31.87-57.28,31.87C29.34,302.06,0,273.93,0,236.43Z"/><path class="cls-1" d="m135,236.43c0-36.75,29.62-65.44,66.47-65.44s66.56,28.78,66.56,65.44-28.78,65.62-66.56,65.62-66.47-27.84-66.47-65.62Zm31.69,0c0,20.34,14.16,35.81,34.78,35.81s34.97-14.34,34.97-35.81-15-35.53-34.97-35.53-34.78,14.91-34.78,35.53Z"/><path class="cls-1" d="m290.25,300.18v-127.31h26.25l64.12,77.62v-77.62h30.84v127.31h-26.72l-63.66-76.87v76.87h-30.84Z"/><path class="cls-1" d="m427.16,172.87h106.03v26.53h-37.59v100.78h-30.75v-100.78h-37.69v-26.53Z"/><path class="cls-1" d="m579.76,300.18h-30.84v-127.31h30.84v127.31Z"/><path class="cls-1" d="m606.39,300.18v-127.31h26.25l64.12,77.62v-77.62h30.84v127.31h-26.72l-63.66-76.87v76.87h-30.84Z"/><path class="cls-1" d="m783.67,172.87v79.78c0,13.88,9,22.69,23.06,22.69s23.16-8.72,23.16-22.69v-79.78h30.84v81.47c0,29.62-20.44,47.72-54,47.72s-53.91-17.53-53.91-47.72v-81.47h30.84Z"/><path class="cls-1" d="m885.96,172.87h90.28v25.97h-59.44v23.62h52.03v25.88h-52.03v25.97h60.37v25.87h-91.22v-127.31Z"/><path class="cls-1" d="m1002.5,300.18v-127.31h55.69c36,0,64.88,28.31,64.88,63.56s-28.88,63.75-64.88,63.75h-55.69Zm52.69-25.87c21.38,0,36-17.25,36-37.88s-14.62-37.59-36-37.59h-21.84v75.47h21.84Z"/></g></g></svg>